<?xml version="1.0" encoding="utf-8"?>
<!-- Generator: Adobe Illustrator 25.3.1, SVG Export Plug-In . SVG Version: 6.00 Build 0)  -->
<svg version="1.1" id="Layer_1" xmlns="http://www.w3.org/2000/svg" xmlns:xlink="http://www.w3.org/1999/xlink" x="0px" y="0px"
	 viewBox="0 0 971.9 417.7" style="enable-background:new 0 0 971.9 417.7;" xml:space="preserve">
<style type="text/css">
	.st0{fill:#005F7F;}
</style>
<g>
	<g>
		<path class="st0" d="M99.1,284.9v4.9c0,22.8-16,48.9-40.8,48.9c-19,0-28.7-12.1-28.7-24.6c0-27.6,39.9-29.2,61.9-29.2H99.1z
			 M92.1,262.7c-25.7,0-92.1,2.1-92.1,52.9c0,30.7,25.7,46.8,51.9,46.8c36.5,0,48.9-30.4,48.9-30.4h0.6c0,0-0.6,5.2-0.6,12.1v14.6
			H128v-97.2c0-38.9-21.7-60.1-60.4-60.1c-35,0-57.1,18.2-57.1,18.2l12.1,21.6c0,0,19-14.9,42.6-14.9c19.3,0,33.5,8.5,33.5,33.7v2.7
			H92.1z"/>
		<path class="st0" d="M241.8,227.2c25.4,0,43.2,21.6,43.2,55c0,34.9-19.9,55-44.1,55c-28.1,0-43.2-27.3-43.2-54.7
			C197.7,243.3,218.8,227.2,241.8,227.2 M198.6,350.5c0-7.9-0.6-13.4-0.6-13.4h0.6c0,0,13.3,25.2,46.8,25.2
			c39.9,0,69.2-31.6,69.2-80.5c0-47.7-26-80.5-67-80.5c-38.4,0-51.3,28-51.3,28h-0.6c0,0,0.6-5.2,0.6-11.2V205h-26.9v212.7h29.3
			V350.5z"/>
		<path class="st0" d="M378.6,295.8c0-9.4,0.9-18.8,3.6-27.6c7-22.8,24.2-36.1,42.9-36.1c4.5,0,8.5,0.9,8.5,0.9v-29.2
			c0,0-3.6-0.6-7.6-0.6c-23.6,0-41.4,17.6-48.3,40.1h-0.6c0,0,0.6-5.2,0.6-11.5V205h-28.4v153.7h29.3V295.8z"/>
		<rect x="467" y="205" class="st0" width="29.3" height="153.7"/>
		<path class="st0" d="M570,236.6c0,0,0.6-5.2,0.6-11.2V205h-28.4v153.7h29.3v-70.2c0-7,0.3-14,1.8-20c5.7-21.9,21.4-40.4,43.8-40.4
			c23.6,0,26.6,18.5,26.6,38.6v92H673v-70.2c0-7.9,0.6-14.9,2.1-21.3c5.4-21,21.5-39.2,42.9-39.2c23,0,27.2,17,27.2,38.6v92h29.3
			v-98.4c0-39.2-16-58.9-50.4-58.9c-24.8,0-45.9,16.4-54.4,34.9h-0.6c-5.1-23.1-20.2-34.9-45.9-34.9c-23.9,0-45.3,17.3-52.6,35.2
			H570z"/>
		<path class="st0" d="M889.5,226.9c29,0,52.5,22.8,52.5,54.7c0,32.2-23.6,55.3-52.5,55.3c-28.7,0-52.6-23.1-52.6-55.3
			C836.9,249.6,860.8,226.9,889.5,226.9 M807,281.5c0,46.8,36.8,80.8,82.5,80.8c45.6,0,82.4-34,82.4-80.8
			c0-46.5-36.8-80.2-82.4-80.2C843.9,201.3,807,235.1,807,281.5"/>
		<path class="st0" d="M501.6,143.5c0,10.7-8.7,19.4-19.4,19.4c-10.7,0-19.4-8.7-19.4-19.4c0-10.7,8.7-19.4,19.4-19.4
			C492.9,124.1,501.6,132.8,501.6,143.5"/>
		<path class="st0" d="M514.8,81.5c0,16.5,13.4,29.8,29.8,29.8c16.5,0,29.8-13.4,29.8-29.8c0-16.5-13.4-29.8-29.8-29.8
			C528.2,51.6,514.8,65,514.8,81.5 M743.6,85.1c0,30.2,24.5,54.7,54.8,54.7c30.2,0,54.7-24.5,54.7-54.7c0-30.2-24.5-54.8-54.7-54.8
			C768.1,30.4,743.6,54.9,743.6,85.1 M609.5,43.5c0,24,19.5,43.5,43.5,43.5c24,0,43.5-19.5,43.5-43.5C696.4,19.5,677,0,653,0
			C629,0,609.5,19.5,609.5,43.5"/>
		<polygon class="st0" points="948.6,215.8 950.6,215.8 950.6,203.1 955.6,203.1 955.6,201.3 943.6,201.3 943.6,203.1 948.6,203.1 
					"/>
		<path class="st0" d="M959.9,206.7c0.1-0.9,0-2.2,0-2.2h0c0,0,0.5,1.4,0.8,2.2l2.9,6.5h1.8l2.9-6.5c0.3-0.8,0.8-2.1,0.8-2.1h0
			c0,0,0,1.2,0,2.1l0.7,9.1h2l-1.2-14.5h-2.1l-3.3,7.8c-0.3,0.8-0.7,1.9-0.7,1.9h0c0,0-0.4-1.1-0.7-1.9l-3.3-7.8h-2.1l-1.2,14.5h2
			L959.9,206.7z"/>
	</g>
</g>
</svg>
